<?xml version="1.0" encoding="utf-8"?>
<!-- Generator: Adobe Illustrator 23.0.5, SVG Export Plug-In . SVG Version: 6.00 Build 0)  -->
<svg version="1.1" id="Layer_1" xmlns="http://www.w3.org/2000/svg" xmlns:xlink="http://www.w3.org/1999/xlink" x="0px" y="0px"
	 viewBox="0 0 200 200" style="enable-background:new 0 0 200 200;" xml:space="preserve">
<style type="text/css">
	.st0{fill:#FAD95E;}
	.st1{fill:#333333;}
	.st2{fill:#FFFFFF;}
	.st3{fill:#7FCCBF;}
</style>
<g>
	<g>
		<path class="st0" d="M160.97,157.25c-7.82,0-14.18-6.36-14.18-14.18s6.36-14.18,14.18-14.18s14.18,6.36,14.18,14.18
			S168.79,157.25,160.97,157.25z M157.12,145.79c0.6,1.54,2.1,2.63,3.85,2.63c1.11,0,2.15-0.43,2.93-1.22
			c0.41-0.41,0.71-0.89,0.91-1.41H157.12z M156.97,139.13c-0.18,0-0.37,0.15-0.37,0.37c0,0.21,0.16,0.37,0.37,0.37
			c0.21,0,0.37-0.16,0.37-0.37C157.34,139.27,157.15,139.13,156.97,139.13z M164.98,139.1c-0.21,0-0.37,0.16-0.37,0.37
			c0,0.22,0.19,0.37,0.37,0.37c0.18,0,0.37-0.15,0.37-0.37S165.16,139.1,164.98,139.1z"/>
	</g>
	<g>
		<path class="st1" d="M160.97,130.39c6.99,0,12.68,5.69,12.68,12.68c0,6.99-5.69,12.68-12.68,12.68c-6.99,0-12.68-5.69-12.68-12.68
			C148.3,136.08,153.98,130.39,160.97,130.39 M164.98,141.34c1.01,0,1.87-0.83,1.87-1.87s-0.85-1.87-1.87-1.87
			c-1.04,0-1.87,0.83-1.87,1.87S163.96,141.34,164.98,141.34 M156.97,141.36c1.04,0,1.87-0.83,1.87-1.87s-0.85-1.87-1.87-1.87
			c-1.01,0-1.87,0.83-1.87,1.87S155.93,141.36,156.97,141.36 M160.97,149.92c3.1,0,5.63-2.51,5.61-5.63h-11.24
			C155.34,147.41,157.88,149.92,160.97,149.92 M160.97,127.39c-8.65,0-15.68,7.03-15.68,15.68c0,8.65,7.03,15.68,15.68,15.68
			c8.65,0,15.68-7.03,15.68-15.68C176.65,134.43,169.62,127.39,160.97,127.39L160.97,127.39z"/>
	</g>
</g>
<g>
	<line class="st2" x1="33.52" y1="156.56" x2="95.95" y2="71.11"/>
	
		<rect x="11.82" y="112.34" transform="matrix(0.59 -0.8074 0.8074 0.59 -65.3711 98.9472)" class="st1" width="105.83" height="3"/>
</g>
<g>
	<circle class="st2" cx="33.09" cy="157.79" r="11"/>
	<path class="st1" d="M33.08,170.29c-6.05,0-11.38-4.42-12.34-10.58c-0.51-3.3,0.29-6.6,2.26-9.29c1.97-2.7,4.87-4.46,8.17-4.98
		c3.29-0.52,6.6,0.29,9.29,2.26c2.7,1.97,4.46,4.87,4.98,8.17c0.51,3.3-0.29,6.6-2.26,9.3c-1.97,2.7-4.87,4.46-8.17,4.98
		C34.36,170.24,33.72,170.29,33.08,170.29z M33.11,148.29c-0.49,0-0.99,0.04-1.48,0.12c-2.51,0.39-4.71,1.73-6.21,3.78
		c-1.5,2.05-2.11,4.56-1.72,7.06c0.81,5.17,5.67,8.74,10.85,7.92c2.51-0.39,4.71-1.73,6.21-3.78c1.5-2.05,2.11-4.56,1.72-7.06l0,0
		c-0.39-2.51-1.73-4.71-3.78-6.21C37.05,148.92,35.11,148.29,33.11,148.29z"/>
</g>
<g>
	<circle class="st2" cx="100.09" cy="68.79" r="11"/>
	<path class="st1" d="M100.06,81.29c-2.63,0-5.18-0.83-7.35-2.41c-2.7-1.97-4.46-4.87-4.98-8.17c-0.51-3.3,0.29-6.6,2.26-9.29
		c1.97-2.7,4.87-4.46,8.17-4.98c3.29-0.52,6.6,0.29,9.29,2.26s4.46,4.87,4.98,8.17v0c0.51,3.3-0.29,6.6-2.26,9.3
		s-4.87,4.46-8.17,4.98C101.36,81.24,100.71,81.29,100.06,81.29z M100.11,59.29c-0.49,0-0.99,0.04-1.48,0.11
		c-2.51,0.39-4.71,1.73-6.21,3.78c-1.5,2.05-2.11,4.56-1.72,7.06c0.39,2.51,1.73,4.71,3.78,6.21c2.05,1.5,4.56,2.1,7.06,1.72
		c2.51-0.39,4.71-1.73,6.21-3.78c1.5-2.05,2.11-4.56,1.72-7.06v0c-0.39-2.51-1.73-4.71-3.78-6.21
		C104.05,59.92,102.11,59.29,100.11,59.29z"/>
</g>
<g>
	<line class="st2" x1="71.13" y1="125.83" x2="98.99" y2="160.48"/>
	
		<rect x="83.56" y="120.93" transform="matrix(0.7794 -0.6265 0.6265 0.7794 -70.9227 84.8644)" class="st1" width="3" height="44.46"/>
</g>
<g>
	<line class="st2" x1="27.73" y1="85.14" x2="71.67" y2="127.98"/>
	<rect x="48.2" y="75.87" transform="matrix(0.698 -0.7161 0.7161 0.698 -61.2921 67.7621)" class="st1" width="3" height="61.37"/>
</g>
<g>
	<circle class="st0" cx="25.59" cy="85.29" r="9.5"/>
	<path class="st1" d="M25.58,96.29c-2.88,0-5.6-1.11-7.67-3.12c-2.1-2.05-3.28-4.8-3.32-7.74c-0.04-2.94,1.07-5.71,3.12-7.82
		c2.05-2.1,4.8-3.28,7.74-3.32c2.95-0.03,5.71,1.07,7.82,3.12c2.1,2.05,3.28,4.8,3.32,7.74c0.04,2.94-1.07,5.71-3.12,7.82
		c-2.05,2.1-4.8,3.28-7.74,3.32l-0.02-1.5l0.02,1.5C25.68,96.29,25.63,96.29,25.58,96.29z M25.59,77.29c-0.04,0-0.07,0-0.1,0
		c-4.41,0.06-7.95,3.69-7.9,8.1c0.03,2.14,0.88,4.13,2.42,5.63s3.57,2.32,5.69,2.27c2.14-0.03,4.14-0.88,5.63-2.42
		c1.49-1.53,2.3-3.55,2.27-5.69s-0.88-4.14-2.42-5.63C29.67,78.09,27.69,77.29,25.59,77.29z"/>
</g>
<g>
	<circle class="st0" cx="94.59" cy="156.29" r="10.5"/>
	<path class="st1" d="M94.61,168.29c-0.44,0-0.88-0.02-1.32-0.07l0,0c-3.19-0.35-6.05-1.91-8.05-4.41c-2.01-2.5-2.92-5.63-2.58-8.81
		c0.35-3.19,1.91-6.05,4.41-8.06c2.5-2.01,5.63-2.92,8.81-2.58c6.58,0.72,11.35,6.65,10.63,13.23c-0.35,3.19-1.91,6.05-4.41,8.05
		C99.95,167.37,97.33,168.29,94.61,168.29z M93.61,165.23c4.94,0.55,9.38-3.04,9.92-7.97c0.54-4.93-3.04-9.38-7.97-9.92
		c-4.93-0.54-9.38,3.04-9.92,7.97c-0.26,2.39,0.43,4.74,1.93,6.61C89.08,163.8,91.22,164.97,93.61,165.23L93.61,165.23z"/>
</g>
<g>
	<line class="st2" x1="65.85" y1="114.77" x2="108.89" y2="125.91"/>
	
		<rect x="85.87" y="98.11" transform="matrix(0.2505 -0.9681 0.9681 0.2505 -51.0194 174.7691)" class="st1" width="3" height="44.45"/>
</g>
<g>
	<circle class="st2" cx="103.59" cy="125.29" r="7.5"/>
	<path class="st1" d="M103.6,134.29c-0.76,0-1.52-0.1-2.27-0.29c-2.33-0.6-4.28-2.07-5.5-4.15c-1.22-2.07-1.56-4.49-0.96-6.82
		c0.6-2.33,2.07-4.28,4.15-5.5c4.28-2.52,9.8-1.09,12.32,3.19c2.52,4.28,1.09,9.8-3.19,12.32l0,0
		C106.75,133.87,105.19,134.29,103.6,134.29z M103.58,119.29c-1.03,0-2.08,0.27-3.03,0.83c-1.38,0.81-2.36,2.12-2.76,3.67
		c-0.4,1.55-0.17,3.17,0.64,4.55s2.11,2.36,3.67,2.76c1.55,0.4,3.16,0.17,4.55-0.64c2.85-1.68,3.8-5.36,2.13-8.21
		C107.64,120.35,105.63,119.29,103.58,119.29z"/>
</g>
<g>
	<path class="st0" d="M52.62,37.08l6.52,3.57c0.78,0.43,0.78,1.55,0,1.98l-6.52,3.57c-0.19,0.1-0.35,0.26-0.45,0.45l-3.57,6.52
		c-0.43,0.78-1.55,0.78-1.98,0l-3.57-6.52c-0.1-0.19-0.26-0.35-0.45-0.45l-6.52-3.57c-0.78-0.43-0.78-1.55,0-1.98l6.52-3.57
		c0.19-0.1,0.35-0.26,0.45-0.45l3.57-6.52c0.43-0.78,1.55-0.78,1.98,0l3.57,6.52C52.27,36.82,52.43,36.98,52.62,37.08z"/>
</g>
<g>
	<g>
		<g>
			<path class="st3" d="M146.36,112.17c-2.15,0-5.27-1.67-5.27-4.29v-7.42c-6.97-2.85-14-10.8-14-20.73v-0.6
				c0-12.32,10.02-22.34,22.34-22.34h13.04c11.37,0,20.62,9.25,20.62,20.62v2.76c0,11.37-9.25,20.62-20.62,20.62h-2.66l-9.91,9.74
				C149.24,111.2,147.69,112.17,146.36,112.17z M161.65,77.01c-1.1,0-2,0.9-2,2c0,1.1,0.9,2,2,2c1.1,0,2-0.9,2-2
				C163.65,77.91,162.75,77.01,161.65,77.01z M149.04,77.01c-1.1,0-2,0.9-2,2c0,1.1,0.9,2,2,2c1.1,0,2-0.9,2-2
				C151.04,77.91,150.14,77.01,149.04,77.01z"/>
		</g>
		<g>
			<path class="st1" d="M162.47,58.29c10.52,0,19.12,8.6,19.12,19.12v2.76c0,10.56-8.56,19.12-19.12,19.12h-2.5h-0.78l-10.34,10.17
				c-0.5,0.51-1.7,1.21-2.49,1.21c-1.54,0-3.77-1.25-3.77-2.8v-7.84v-0.61c-7-2.37-14-10.28-14-19.69v-0.6
				c0-11.46,9.38-20.84,20.84-20.84H162.47 M149.04,82.52c1.93,0,3.5-1.57,3.5-3.5c0-1.93-1.57-3.5-3.5-3.5
				c-1.93,0-3.5,1.57-3.5,3.5C145.54,80.95,147.11,82.52,149.04,82.52 M161.65,82.52c1.93,0,3.5-1.57,3.5-3.5
				c0-1.93-1.57-3.5-3.5-3.5s-3.5,1.57-3.5,3.5S159.72,82.52,161.65,82.52 M162.47,55.29h-13.04c-13.14,0-23.84,10.69-23.84,23.84
				v0.6c0,10.15,6.89,18.36,14,21.71v6.44c0,3.59,3.94,5.8,6.77,5.8c1.86,0,3.76-1.24,4.61-2.08l9.45-9.3h2.05
				c12.2,0,22.12-9.92,22.12-22.12v-2.76C184.59,65.21,174.67,55.29,162.47,55.29L162.47,55.29z M149.04,79.52
				c-0.28,0-0.5-0.23-0.5-0.5c0-0.28,0.23-0.5,0.5-0.5c0.28,0,0.5,0.23,0.5,0.5C149.54,79.29,149.32,79.52,149.04,79.52
				L149.04,79.52z M161.65,79.52c-0.28,0-0.5-0.23-0.5-0.5c0-0.28,0.23-0.5,0.5-0.5c0.28,0,0.5,0.23,0.5,0.5
				C162.15,79.29,161.93,79.52,161.65,79.52L161.65,79.52z"/>
		</g>
	</g>
</g>
<g>
	<circle class="st3" cx="65.09" cy="115.79" r="15"/>
	<path class="st1" d="M65.09,132.29c-9.1,0-16.5-7.4-16.5-16.5s7.4-16.5,16.5-16.5s16.5,7.4,16.5,16.5S74.19,132.29,65.09,132.29z
		 M65.09,102.29c-7.44,0-13.5,6.06-13.5,13.5s6.06,13.5,13.5,13.5s13.5-6.06,13.5-13.5S72.53,102.29,65.09,102.29z"/>
</g>
</svg>
