<?xml version="1.0" encoding="utf-8"?>
<!-- Generator: Adobe Illustrator 23.0.5, SVG Export Plug-In . SVG Version: 6.00 Build 0)  -->
<svg version="1.1" id="Layer_1" xmlns="http://www.w3.org/2000/svg" xmlns:xlink="http://www.w3.org/1999/xlink" x="0px" y="0px"
	 viewBox="0 0 200 200" style="enable-background:new 0 0 200 200;" xml:space="preserve">
<style type="text/css">
	.st0{fill:#FAD95E;}
	.st1{fill:#333333;}
	.st2{fill:#7FCCBF;}
	.st3{fill:#FFFFFF;}
</style>
<g>
	<path class="st0" d="M28.49,41.95l5.3,2.9c0.64,0.35,0.64,1.26,0,1.61l-5.3,2.9c-0.15,0.08-0.28,0.21-0.36,0.36l-2.9,5.3
		c-0.35,0.64-1.26,0.64-1.61,0l-2.9-5.3c-0.08-0.15-0.21-0.28-0.36-0.36l-5.3-2.9c-0.64-0.35-0.64-1.26,0-1.61l5.3-2.9
		c0.15-0.08,0.28-0.21,0.36-0.36l2.9-5.3c0.35-0.64,1.26-0.64,1.61,0l2.9,5.3C28.21,41.74,28.34,41.87,28.49,41.95z"/>
</g>
<g>
	<path class="st1" d="M13.3,102.45l5.06,2.77c0.61,0.33,0.61,1.21,0,1.54l-5.06,2.77c-0.15,0.08-0.27,0.2-0.35,0.35l-2.77,5.06
		c-0.33,0.61-1.21,0.61-1.54,0l-2.77-5.06c-0.08-0.15-0.2-0.27-0.35-0.35l-5.06-2.77c-0.61-0.33-0.61-1.21,0-1.54l5.06-2.77
		c0.15-0.08,0.27-0.2,0.35-0.35l2.77-5.06c0.33-0.61,1.21-0.61,1.54,0l2.77,5.06C13.03,102.25,13.15,102.37,13.3,102.45z"/>
</g>
<g>
	<path class="st2" d="M193.39,150.26l5.3,2.9c0.64,0.35,0.64,1.26,0,1.61l-5.3,2.9c-0.15,0.08-0.28,0.21-0.36,0.36l-2.9,5.3
		c-0.35,0.64-1.26,0.64-1.61,0l-2.9-5.3c-0.08-0.15-0.21-0.28-0.36-0.36l-5.3-2.9c-0.64-0.35-0.64-1.26,0-1.61l5.3-2.9
		c0.15-0.08,0.28-0.21,0.36-0.36l2.9-5.3c0.35-0.64,1.26-0.64,1.61,0l2.9,5.3C193.11,150.05,193.24,150.18,193.39,150.26z"/>
</g>
<g>
	<g>
		<path class="st3" d="M107.7,129.72H78.93c-1.19,0-2.5-0.91-2.92-2.02l-1.49-3.96l-0.2-0.52c-0.14-0.36-0.14-0.77-0.01-1.13
			l0.97-2.7c0-1.17,0.5-2.3,1.38-3.13l0.75-0.7c0.41-0.38,0.95-0.6,1.51-0.6h5.18v-2.87c0-2.46,1.3-4.73,3.41-5.98l0.05-0.03
			c1.07-0.63,2.29-0.97,3.53-0.97h4.82v5.19v-5.28l1.94-1.81c1.19-1.19,2.81-1.87,4.5-1.87l0,0c1.69,0,3.31,0.67,4.5,1.87l0.86,1.35
			v6.19v-5.64h4.82c1.97,0,3.81,0.96,4.94,2.57l0.03,0.04c0.67,0.96,1.04,2.11,1.04,3.28v5.92h2.54c1.57,0,3.05,0.69,4.06,1.89
			l0.03,0.04c0.8,0.96,1.24,2.16,1.24,3.41v2.28c0,0.72-0.3,1.4-0.82,1.89l-2.76,2.59c-0.48,0.45-1.11,0.7-1.77,0.7h-4.5v11.95
			l-3.94-3.7c-1.47-1.38-2.31-3.31-2.31-5.33v-2.92H107.7z"/>
		<path class="st1" d="M118.08,145.13l-6.46-6.07c-1.77-1.66-2.78-4-2.78-6.42v-1.42H78.93c-1.82,0-3.68-1.29-4.33-3l-1.68-4.48
			c-0.26-0.69-0.27-1.46-0.02-2.16l0.89-2.48c0.07-1.48,0.74-2.9,1.85-3.94l0.75-0.7c0.69-0.65,1.59-1,2.53-1h3.68v-1.37
			c0-2.97,1.59-5.76,4.15-7.27c1.35-0.8,2.83-1.2,4.35-1.2h4.13l1.61-1.5c1.45-1.45,3.42-2.27,5.52-2.27s4.08,0.82,5.56,2.31
			l0.2,0.25l0.77,1.21h3.65c2.46,0,4.76,1.2,6.17,3.21c0.88,1.26,1.33,2.69,1.33,4.18v4.42h1.04c2.01,0,3.91,0.88,5.21,2.42
			c1.06,1.26,1.63,2.82,1.63,4.42v2.28c0,1.13-0.47,2.21-1.29,2.98l-2.76,2.59c-0.76,0.71-1.76,1.11-2.8,1.11h-3V145.13z
			 M78.92,116.45c-0.18,0-0.35,0.07-0.48,0.19l-0.74,0.7c-0.58,0.55-0.91,1.27-0.91,2.04v0.26l-1.05,2.95l0,0.1l1.68,4.48
			c0.2,0.53,0.95,1.05,1.52,1.05h32.91v4.42c0,1.6,0.67,3.14,1.83,4.23l1.41,1.33v-9.98h6c0.28,0,0.54-0.11,0.75-0.3l2.76-2.59
			c0.22-0.21,0.34-0.5,0.34-0.79v-2.28c0-0.89-0.32-1.76-0.89-2.45c-0.76-0.9-1.82-1.39-2.94-1.39h-4.04V111
			c0-0.87-0.26-1.71-0.76-2.42c-0.87-1.25-2.26-1.97-3.74-1.97h-3.32v4.14h-3V105l-0.53-0.83c-0.91-0.85-2.08-1.32-3.33-1.32
			c-1.3,0-2.52,0.51-3.44,1.43l-1.5,1.4v4.62h-3v-3.69h-3.32c-0.98,0-1.93,0.26-2.77,0.76c-1.7,1-2.72,2.8-2.72,4.72v4.37H78.92z"/>
	</g>
	<g>
		<polyline class="st3" points="90.99,115.44 90.99,120.42 96.9,123.37 96.9,129.23 		"/>
		<polygon class="st1" points="98.4,129.23 95.4,129.23 95.4,124.3 89.49,121.35 89.49,115.44 92.49,115.44 92.49,119.49 
			98.4,122.45 		"/>
	</g>
	<g>
		<polyline class="st3" points="112.65,115.44 112.65,120.42 106.74,123.37 106.74,129.23 		"/>
		<polygon class="st1" points="108.24,129.23 105.24,129.23 105.24,122.45 111.15,119.49 111.15,115.44 114.15,115.44 
			114.15,121.35 108.24,124.3 		"/>
	</g>
</g>
<g>
	<g>
		<polygon class="st2" points="146.52,73.58 144.31,59.84 148.4,59.84 157.91,69.35 157.91,73.58 		"/>
	</g>
	<g>
		<path class="st1" d="M147.78,61.34l8.63,8.63v2.11h-8.61l-1.72-10.74H147.78 M149.03,58.34h-6.47l2.69,16.74h14.17v-6.35
			L149.03,58.34L149.03,58.34z"/>
	</g>
</g>
<g>
	<polygon class="st2" points="157.93,72.62 157.93,90.34 127.41,90.34 127.41,59.82 147.1,59.82 147.1,72.62 	"/>
	<path class="st1" d="M159.43,91.84h-33.52V58.32h22.69v12.8h10.83V91.84z M128.91,88.84h27.52V74.12H145.6v-12.8h-16.69V88.84z"/>
</g>
<g>
	<g>
		<polygon class="st0" points="63.82,73.58 61.62,59.84 65.71,59.84 75.21,69.35 75.21,73.58 		"/>
	</g>
	<g>
		<path class="st1" d="M65.09,61.34l8.63,8.63v2.11H65.1l-1.72-10.74H65.09 M66.33,58.34h-6.47l2.69,16.74h14.17v-6.35L66.33,58.34
			L66.33,58.34z"/>
	</g>
</g>
<g>
	<polygon class="st0" points="75.24,72.62 75.24,90.34 44.72,90.34 44.72,59.82 64.41,59.82 64.41,72.62 	"/>
	<path class="st1" d="M76.74,91.84H43.22V58.32h22.69v12.8h10.83V91.84z M46.22,88.84h27.52V74.12H62.91v-12.8H46.22V88.84z"/>
</g>
<g>
	<g>
		<polygon class="st3" points="105.17,60.78 102.96,47.05 107.06,47.05 116.56,56.55 116.56,60.78 		"/>
	</g>
	<g>
		<path class="st1" d="M106.43,48.55l8.63,8.63v2.11h-8.61l-1.72-10.74H106.43 M107.68,45.55h-6.47l2.69,16.74h14.17v-6.35
			L107.68,45.55L107.68,45.55z"/>
	</g>
</g>
<g>
	<polygon class="st3" points="116.58,58.84 116.58,76.56 86.07,76.56 86.07,46.04 105.76,46.04 105.76,58.84 	"/>
	<path class="st1" d="M118.08,78.06H84.57V44.54h22.69v12.8h10.83V78.06z M87.57,75.06h27.52V60.34h-10.83v-12.8H87.57V75.06z"/>
</g>
<g>
	<polygon class="st1" points="126.09,119.76 123.97,117.63 141.67,99.94 141.67,91.82 144.67,91.82 144.67,101.18 	"/>
</g>
<g>
	<polygon class="st1" points="74.4,116.62 58.97,101.18 58.97,91.82 61.97,91.82 61.97,99.94 76.52,114.49 	"/>
</g>
<g>
	<line class="st2" x1="100.83" y1="78.03" x2="100.83" y2="101.66"/>
	<rect x="99.33" y="78.03" class="st1" width="3" height="23.63"/>
</g>
<g>
	<circle class="st3" cx="173.68" cy="122.83" r="4.92"/>
	<path class="st1" d="M173.68,129.25c-3.54,0-6.42-2.88-6.42-6.42c0-3.54,2.88-6.42,6.42-6.42c3.54,0,6.42,2.88,6.42,6.42
		C180.11,126.37,177.22,129.25,173.68,129.25z M173.68,119.41c-1.89,0-3.42,1.54-3.42,3.42c0,1.89,1.54,3.42,3.42,3.42
		c1.89,0,3.42-1.54,3.42-3.42C177.11,120.94,175.57,119.41,173.68,119.41z"/>
</g>
<g>
	<circle class="st3" cx="157.93" cy="142.52" r="4.92"/>
	<path class="st1" d="M157.93,148.94c-3.54,0-6.42-2.88-6.42-6.42c0-3.54,2.88-6.42,6.42-6.42c3.54,0,6.42,2.88,6.42,6.42
		C164.35,146.06,161.47,148.94,157.93,148.94z M157.93,139.09c-1.89,0-3.42,1.54-3.42,3.42c0,1.89,1.54,3.42,3.42,3.42
		c1.89,0,3.42-1.54,3.42-3.42C161.35,140.63,159.82,139.09,157.93,139.09z"/>
</g>
<g>
	<circle class="st3" cx="40.78" cy="121.84" r="4.92"/>
	<path class="st1" d="M40.78,128.27c-3.54,0-6.42-2.88-6.42-6.42c0-3.54,2.88-6.42,6.42-6.42s6.42,2.88,6.42,6.42
		C47.2,125.38,44.32,128.27,40.78,128.27z M40.78,118.42c-1.89,0-3.42,1.54-3.42,3.42c0,1.89,1.54,3.42,3.42,3.42
		s3.42-1.54,3.42-3.42C44.2,119.96,42.67,118.42,40.78,118.42z"/>
</g>
<g>
	<circle class="st3" cx="27" cy="140.55" r="4.92"/>
	<path class="st1" d="M27,146.97c-3.54,0-6.42-2.88-6.42-6.42c0-3.54,2.88-6.42,6.42-6.42s6.42,2.88,6.42,6.42
		C33.42,144.09,30.54,146.97,27,146.97z M27,137.13c-1.89,0-3.42,1.54-3.42,3.42c0,1.89,1.54,3.42,3.42,3.42s3.42-1.54,3.42-3.42
		C30.42,138.66,28.89,137.13,27,137.13z"/>
</g>
<g>
	<line class="st2" x1="127.91" y1="122.83" x2="167.28" y2="122.83"/>
	<rect x="127.91" y="121.33" class="st1" width="39.38" height="3"/>
</g>
<g>
	<path class="st2" d="M74.24,121.86c-0.47,0.47-26.8,0-26.8,0"/>
	<path class="st1" d="M66.38,123.59c-4.07,0-10.07-0.07-18.97-0.23l0.05-3c9.42,0.17,24.9,0.33,26.36,0.07
		c-0.01,0-0.35,0.07-0.65,0.37l2.12,2.12C74.92,123.31,74.63,123.59,66.38,123.59z"/>
</g>
<g>
	<polygon class="st1" points="59.73,142.05 33.4,142.05 33.4,139.05 58.48,139.05 68.33,129.2 110.19,129.2 110.19,132.2 
		69.57,132.2 	"/>
</g>
<g>
	<polygon class="st1" points="152.52,142.05 143.87,142.05 134.03,132.2 120.03,132.2 120.03,129.2 135.27,129.2 145.11,139.05 
		152.52,139.05 	"/>
</g>
</svg>
