<?xml version="1.0" encoding="utf-8"?>
<!-- Generator: Adobe Illustrator 23.0.5, SVG Export Plug-In . SVG Version: 6.00 Build 0)  -->
<svg version="1.1" id="Layer_1" xmlns="http://www.w3.org/2000/svg" xmlns:xlink="http://www.w3.org/1999/xlink" x="0px" y="0px"
	 viewBox="0 0 200 200" style="enable-background:new 0 0 200 200;" xml:space="preserve">
<style type="text/css">
	.st0{fill:#FAD95E;}
	.st1{fill:#333333;}
	.st2{fill:#7FCCBF;}
</style>
<g>
	<path class="st0" d="M163.26,58.06l6.52,3.57c0.78,0.43,0.78,1.55,0,1.98l-6.52,3.57c-0.19,0.1-0.35,0.26-0.45,0.45l-3.57,6.52
		c-0.43,0.78-1.55,0.78-1.98,0l-3.57-6.52c-0.1-0.19-0.26-0.35-0.45-0.45l-6.52-3.57c-0.78-0.43-0.78-1.55,0-1.98l6.52-3.57
		c0.19-0.1,0.35-0.26,0.45-0.45l3.57-6.52c0.43-0.78,1.55-0.78,1.98,0l3.57,6.52C162.91,57.8,163.07,57.96,163.26,58.06z"/>
</g>
<g>
	<path class="st1" d="M42.27,145.41l5.14,2.81c0.62,0.34,0.62,1.23,0,1.56l-5.14,2.81c-0.15,0.08-0.27,0.2-0.35,0.35l-2.81,5.14
		c-0.34,0.62-1.23,0.62-1.56,0l-2.81-5.14c-0.08-0.15-0.2-0.27-0.35-0.35l-5.14-2.81c-0.62-0.34-0.62-1.23,0-1.56l5.14-2.81
		c0.15-0.08,0.27-0.2,0.35-0.35l2.81-5.14c0.34-0.62,1.23-0.62,1.56,0l2.81,5.14C42,145.21,42.12,145.33,42.27,145.41z"/>
</g>
<g>
	<path class="st2" d="M101.21,31.98l5.38,2.94c0.65,0.35,0.65,1.28,0,1.64l-5.38,2.94c-0.16,0.09-0.29,0.21-0.37,0.37l-2.94,5.38
		c-0.35,0.65-1.28,0.65-1.64,0l-2.94-5.38c-0.09-0.16-0.21-0.29-0.37-0.37l-5.38-2.94c-0.65-0.35-0.65-1.28,0-1.64l5.38-2.94
		c0.16-0.09,0.29-0.21,0.37-0.37l2.94-5.38c0.35-0.65,1.28-0.65,1.64,0l2.94,5.38C100.92,31.76,101.05,31.89,101.21,31.98z"/>
</g>
<g>
	<polygon class="st1" points="34.67,103.79 33.16,101.19 118.95,51.3 138.32,63.17 136.76,65.73 118.91,54.8 	"/>
</g>
<g>
	<polygon class="st1" points="105.69,125.52 85.41,113.97 86.89,111.36 102.69,120.36 102.69,103.61 105.69,103.61 	"/>
</g>
<g>
	
		<rect x="76.34" y="97.96" transform="matrix(0.4992 -0.8665 0.8665 0.4992 -89.1188 141.4837)" class="st1" width="3" height="99.75"/>
</g>
<g>
	<rect x="102.69" y="122.61" class="st1" width="3" height="22"/>
</g>
<g>
	<polygon class="st0" points="34.26,123 104.19,163.53 104.19,142.63 34.19,103.28 	"/>
	<path class="st1" d="M105.69,166.13l-72.92-42.26l-0.09-23.16l73.01,41.04V166.13z M35.76,122.13l66.93,38.79v-17.42L35.7,105.85
		L35.76,122.13z"/>
</g>
<g>
	<g>
		<polygon class="st2" points="122.19,91.63 85.87,112.13 71.42,103.08 137.19,65.64 137.19,162.8 122.19,171.16 		"/>
	</g>
	<g>
		<path class="st1" d="M135.69,68.22v93.7l-12,6.69V94.2v-5.14l-4.47,2.53l-33.31,18.8l-11.57-7.25L135.69,68.22 M138.69,63.06
			l-70.2,39.96l17.34,10.86l34.86-19.68v79.51l18-10.03V63.06L138.69,63.06z"/>
	</g>
</g>
</svg>
